<?xml version="1.0" encoding="utf-8"?>
<!-- Generator: Adobe Adobe Illustrator 24.2.0, SVG Export Plug-In . SVG Version: 6.00 Build 0)  -->
<svg version="1.1" xmlns="http://www.w3.org/2000/svg" xmlns:xlink="http://www.w3.org/1999/xlink" x="0px" y="0px"
	 width="574.09px" height="577px" viewBox="0 0 574.09 577" style="enable-background:new 0 0 574.09 577;" xml:space="preserve">
<style type="text/css">
	.st0{display:none;fill:#FFFFFF;}
	.st1{fill:#6CCFF6;}
	.st2{fill:#FFFFFF;}
	.st3{display:none;}
	.st4{display:inline;}
	.st5{fill:#ED1B23;}
	.st6{fill:none;stroke:#000000;stroke-width:5;stroke-miterlimit:10;}
	.st7{display:none;clip-path:url(#SVGID_2_);}
	.st8{display:inline;clip-path:url(#SVGID_4_);}
	.st9{display:inline;clip-path:url(#SVGID_4_);fill:none;stroke:#000000;stroke-width:5;stroke-miterlimit:10;}
	.st10{clip-path:url(#SVGID_2_);}
</style>
<g id="Layer_1">
	<g>
		<path class="st0" d="M0,610.52V19.62h573.02v590.9H0z M526.11,281.58c0-132.21-107.18-239.4-239.38-239.4
			S47.34,149.37,47.34,281.58s107.18,239.4,239.38,239.4S526.11,413.8,526.11,281.58z M471.52,480.7l5.09-5.44l-5.32-5.3l-5.52,4.85
			l-5.06-4.93l5.24-5.78l-5.56-5.45l-11.48,11.6l28.64,28.27l11.84-11.8l-5.55-5.64l-6.13,5.64L471.52,480.7z M94.61,496.4
			c-0.66,1.62,3.56,4.72,5.01,5.23l25.44-30.82l-9.89-9.74l-31.17,25.74l5.59,5.63l4.89-3.72c0.9,0.31,3.2,2.23,2.7,3.15
			S95.2,494.96,94.61,496.4z M458.99,501.38l-13.51-15.83c-0.49-0.57-0.53-2.87,0.11-2.76c0.42,0.07,2.06,0.21,2.35,0.52l4.58,5.07
			l6.22-5.14c-2.08-2.56-3.88-4.83-6.17-6.95c-3.76-3.49-9.27-1.95-12.74,1.34c-2.55,2.42-4.83,7.22-1.79,11.37
			c5.16,7.03,11.01,13.89,17.17,20.06c3.25,3.25,8.41,2.09,11.54-0.33c2.56-1.98,5.82-6.04,4.18-10.04
			c-1.68-4.09-4.55-7.03-7.8-10.35l-6.01,5.29l5.35,6.78c0.37,0.48-0.39,2.68-0.93,2.4C461.2,502.63,459.4,501.86,458.99,501.38z
			 M148.81,500.14l4.66,3.08l-16.99,27.14c2.22,1.74,4.45,3.08,6.93,4.06l19.65-30.54l-13.14,34.83l9.93,5.3l22.31-30.44
			c-4.6,12.06-9.83,22.28-15.08,34.11l7.35,3.18l16.8-36.39l-14.83-6.99l-12.65,17.87l7.81-20.49c-9.5-5.65-17.87-11.22-26.67-17.52
			c-0.69-0.49-2.45-0.89-2.91-0.28l-1.91,2.49c0.01-6.04-3.28-11.8-10.41-12.62c-2.07-0.24-6.21,1.85-7.73,3.61
			c-5.43,6.25-10.45,12.1-15.27,18.64c-2.92,3.95-0.58,9.19,2.37,11.66c2.97,2.49,7.48,4.64,11.29,1.79
			c3.14-2.35,5.53-5.53,8.07-8.88l-6.2-5.06l-5.37,6.06c-0.43,0.48-2.18,0.32-2.81,0.19c-0.43-0.09-0.06-2.13,0.34-2.61l14.93-17.49
			c1.25,0.85,2.19,2.3,1.73,2.9l-1.72,2.24c-0.68,0.89-1.71,2.31-2.25,3.1c-0.57,0.83,5.21,5.74,6,4.92l2.58-2.69
			c0.95-0.99,2.33-2.93,3.23-2.51c0.76,0.34,2.45,2.05,2.87,2.86l-18.12,25.65c2.28,2,4.39,3.48,6.79,4.79L148.81,500.14z
			 M439.42,529.08l6.41-4.74l-7.41-11.57l10.89,9.31l6.26-4.79l-23.3-32.51l-6.38,4.42l6.2,10.12l-9.55-7.85l-6.51,5L439.42,529.08z
			 M421.73,531.95c1.83-0.88,3.39-1.88,3.85-1.36l1.6,1.78l2.38,2.66l6.36-4.07l-23.69-32.64l-11.89,7.06l16.98,36.53l6.9-3.92
			L421.73,531.95z M393.59,550.84c1.71-5.94-1.2-13.6-6.37-16.11l-11.74-5.69c-0.57-0.28-1.02-2.57-0.99-3.2
			c0.04-0.63,2.08-0.72,2.39-0.16l1.33,2.42c1.61,0.09,5.71-1.28,7.57-2.56c-0.12-1.29-1.17-3.65-0.37-3.88l4.15-1.23l13.88,28.56
			l7.45-3.7l-13.81-28.57l3.86-3.09l-3.39-6.47l-15.53,7.52l1.28,4.91c-2.85-1.84-6.27-2.84-9.61-1.93
			c-2.78,0.76-6.3,3.21-7.01,6.08c-4.37,17.57,22.6,14.11,18.79,25.4c-2.38,0.22-3.41-2.72-4.79-5.78
			c-1.45-0.68-5.88,1.03-7.56,2.37c1.12,3.68,2.66,7.84,5.81,10.02C383.28,558.77,391.91,556.65,393.59,550.84z M193.65,556.82
			c5.65-2.75,8.82-10.67,6.98-16.33c-2.08-6.43-6.46-12.68-3.99-14.94c0.44-0.4,2.27-0.24,2.21,0.35l-0.4,3.42
			c0.87,1.28,4.61,2.8,7.43,3.33c1.32-2.07,2.18-6.4,1.06-9.12c-1.95-4.77-8.64-7.69-13.15-5.56c-7.42,3.49-7.73,12.33-3.99,18.82
			c7.73,13.46-5.94,18.25,0.38,4.65l-7.5-2.61c-1.98,4.25-3.67,8.36-2.22,12.42C182.05,555.61,188.89,559.14,193.65,556.82z
			 M221.16,552.28c-1.38,3.97-2.07,8.84-0.4,11.99c2.37,4.47,10.2,6.78,14.19,3.66c7.2-5.65,6.68-15.71,1.39-22.25
			c-3.49-4.32-5.24-9.97-2.85-9.58c0.5,0.08,1.97,0.4,1.93,0.9l-0.22,3.07c1.42,1.27,5.83,2.19,8.03,1.94
			c1.69-5.26,0.37-10.35-4.21-12.4c-3.95-1.77-8.49-2.16-12.35,1.4l-0.11-3.98l-16.48-4.92l-2.21,7.28l4.26,2.06l-9.14,30.49
			c2.83,1.02,5.19,1.66,8.09,2.04l9.01-29.7c0.91-0.61,3.76,0.2,4.5,0.86c-4.17,11.23,14.75,21.18,3.98,26.49
			c-0.21-2.36-0.05-4.82,0.15-7.98C227.78,552.76,223.25,551.83,221.16,552.28z M362.74,521.84l-7.77,2.49l12.38,38.56l7.77-2.49
			L362.74,521.84z M346.63,565.8c3.63,2.62,11.57,1.53,13.71-2.28c4.79-8.5-0.58-18.24-9.04-21.64c-2.8-1.12-6.45-3.52-6.19-6.35
			c0.06-0.61,2.46-1.07,2.46-0.47c0,0.45,0.81,2.58,1.25,2.67c1.89,0.38,5.8-0.62,7.8-1.7c-0.35-2.97-2.03-6.49-4.45-7.99
			c-4.42-2.74-11.5-1.25-13.98,3.1c-3.67,6.43,0.28,13.42,6.07,16.6c3.41,1.88,13.21,6.85,8.24,11.84
			c-1.73-0.93-2.58-3.68-3.47-7.11l-7.77,1.82C342.15,558.58,342.75,562.99,346.63,565.8z M338.24,552.76l-1.72-7.15l-7.13,0.5
			l-1.2-6.72l7.83-1.78l-1.72-7.63l-15.9,2.76l6.69,39.63l16.61-2.73l-1.33-7.77l-8.21,1.07l-1.39-8.57L338.24,552.76z
			 M260.48,573.61l4.23-39.98l-7.99-0.48l-4.31,39.55L260.48,573.61z M312.59,573.42c2.05,0.56,6.2,0,7.92-1.13l-0.97-13.63
			c-0.13-1.89-1.7-4.87-2.61-6.35c1.74-3.39,2.17-8,1.4-12.04c-0.95-5.01-4.1-7.38-8.94-6.85l-11.57,1.27l3.48,39.82
			c2.87,0.25,6.43-0.11,8.15-1.28c1.02-6.44-3.15-12.23,0.55-18C311.7,561.37,311.78,566.91,312.59,573.42z M284.72,574.62
			l1.66-39.61c-2.5-0.31-5.94-0.47-7.85-0.34l-1.35,13.54l-2.26-13.71c-2.46-0.43-6.12-0.39-8.75,0.25l-1.43,39.35l7.91,0.28
			l1.33-15.62l2.6,15.9L284.72,574.62z"/>
		<g id="inner_guide_00000005965891857953955520000001879008360799227837_">
			<circle class="st1" cx="288.45" cy="285.38" r="176.23"/>
		</g>
		<rect x="354.54" y="53.03" class="st2" width="163" height="486"/>
		<rect x="59.63" y="101.75" class="st2" width="163" height="486"/>
		<g>
			<path class="st3" d="M526.11,281.58c0,132.21-107.18,239.4-239.38,239.4S47.34,413.8,47.34,281.58s107.18-239.4,239.38-239.4
				S526.11,149.37,526.11,281.58z M505.9,281.58c0-121.05-98.13-219.19-219.17-219.19S67.55,160.53,67.55,281.58
				s98.13,219.19,219.17,219.19S505.9,402.63,505.9,281.58z"/>
			<path d="M130.7,363.79c0,0-11.78-22.51-16.36-51.56c-10.96-69.49,23.03-154.81,108.29-190.37V448.9l-26.71-13.83V301.07
				l-53.52-0.05c0.64,24.46,23.46,68.37,23.46,68.37 M194.28,172.39c-31.53,25.5-50.29,61.45-54.01,101.6l54.01,0.21"/>
			<g>
				<path d="M439.71,287.12l23.7-22.91c-7.85-65.71-51.23-118.84-108.89-142.36l0.03,327.04l27.59-13.83c0,0,0-105.86,0-132.14
					h36.45l14.84,15.91c-2.34,19.09-21.85,50.39-21.85,50.39l34.8-5.59c0,0,12.51-23.8,16.34-52.01
					C462.73,311.63,442.7,291.55,439.71,287.12z M418.27,274.2h-36.13V170.24c26.85,20.33,46.57,51.6,54.01,84.23L418.27,274.2z"/>
			</g>
			<g class="st3">
				<path class="st4" d="M318.37,305.66h-5.19l0.01-95.57h-12.3l-0.11-47h-5.72v-22.57h-5.2l-0.32-23.84h-2.01l0,23.84h-4.8v-31.36
					h-2.26l0,31.36h-4.64v22.57h-6.08l-0.05,47h-5.58l-0.05,95.57h-7.37l0.04,155.42l61.67-0.05L318.37,305.66z M314.54,457.08
					l-54.04,0.06l0.01-147.63h7.09l0.09-96.46h5.17l0.04-47.27h6.09v-21.85h12.91v21.85h5.98v47.27h12.1l0.01,96.46h4.55V457.08z"/>
				<path class="st4" d="M283.66,364.95c-1.1,3.42-1.86,6.27-2.38,10.07l7.33-7l6.73,6.49c-0.37-4.74-0.83-6.31-1.55-9.6l9.68-3.18
					l-9.64-3.1l1.92-10.24l-7.23,7.17l-7.32-7.17l2.05,10.27l-9.84,3.11L283.66,364.95z"/>
				<path class="st4" d="M293.77,418.58l1.91-10.2l-7.23,7.15l-7.3-7.17l2.04,10.26l-9.78,3.08l9.81,3.18l-2.1,10.17l7.43-7.06
					l6.72,6.5c-0.37-4.75-0.82-6.2-1.58-9.66l9.78-3.1L293.77,418.58z"/>
				<path class="st4" d="M295.67,288.4l-7.19,7.18l-7.32-7.23l2.07,10.32l-9.83,3.05l9.84,3.18l-2.07,10.15l7.38-7.03l6.78,6.49
					c-0.48-4.88-0.95-6.61-1.6-9.65l9.76-3.13l-9.72-3.13L295.67,288.4z"/>
				<path class="st4" d="M281.15,255.05l7.37-7.01l6.78,6.44c-0.49-4.84-0.95-6.62-1.57-9.58l9.75-3.17l-9.75-3.08l1.92-10.27
					l-7.18,7.22l-7.34-7.26l2.09,10.36l-9.79,3.05l9.79,3.18L281.15,255.05z"/>
			</g>
			<polygon class="st2" points="318.77,305.92 313.51,305.92 313.52,209.12 301.06,209.12 300.95,161.5 295.15,161.5 295.15,138.64 
				289.89,138.64 289.56,114.49 287.52,114.49 287.52,138.64 282.66,138.64 282.66,106.87 280.37,106.87 280.37,138.64 
				275.66,138.64 275.66,161.5 269.51,161.5 269.46,209.12 263.8,209.12 263.75,305.92 256.28,305.92 256.33,463.36 318.8,463.31 
							"/>
			<path class="st5" d="M282.67,238.7l-2.09-10.36l7.34,7.26l7.18-7.22l-1.92,10.27l9.75,3.08l-9.75,3.17
				c0.62,2.96,1.08,4.74,1.57,9.58l-6.78-6.44l-7.37,7.01l2.06-10.11l-9.79-3.18L282.67,238.7z"/>
			<path class="st5" d="M294.73,434.5l-6.72-6.5l-7.43,7.06l2.1-10.17l-9.81-3.18l9.78-3.08l-2.04-10.26l7.3,7.17l7.23-7.15
				l-1.91,10.2l9.71,3.16l-9.78,3.1C293.91,428.3,294.37,429.75,294.73,434.5z"/>
			<path class="st5" d="M280.66,348.39l7.32,7.17l7.23-7.17l-1.92,10.24l9.64,3.1l-9.68,3.18c0.71,3.3,1.18,4.87,1.55,9.6
				l-6.73-6.49l-7.33,7c0.52-3.8,1.28-6.65,2.38-10.07l-10.23-3.19l9.84-3.11L280.66,348.39z"/>
			<path class="st5" d="M293.18,304.87c0.65,3.04,1.12,4.77,1.6,9.65l-6.78-6.49l-7.38,7.03l2.07-10.15l-9.84-3.18l9.83-3.05
				l-2.07-10.32l7.32,7.23l7.19-7.18l-1.9,10.21l9.72,3.13L293.18,304.87z"/>
		</g>
		<circle id="outer_ring" class="st6" cx="287.9" cy="286.19" r="220.97"/>
		<circle id="outer_ring_00000001637871633576183120000015300243819323856287_" class="st6" cx="287.9" cy="286.19" r="198.79"/>
	</g>
</g>
<g id="Layer_2">
	<g>
		<g>
			<defs>
				<rect id="SVGID_1_" x="0" y="0" width="574.09" height="689.51"/>
			</defs>
			<clipPath id="SVGID_2_">
				<use xlink:href="#SVGID_1_"  style="overflow:visible;"/>
			</clipPath>
			<g class="st7">
				<defs>
					<rect id="SVGID_3_" x="0" y="0" width="574.09" height="689.51"/>
				</defs>
				<clipPath id="SVGID_4_" class="st4">
					<use xlink:href="#SVGID_3_"  style="overflow:visible;"/>
				</clipPath>
				<path class="st8" d="M130.7,363.79c0,0-11.78-22.51-16.36-51.56c-10.96-69.49,23.03-154.81,108.29-190.37V448.9l-26.71-13.83
					V301.07l-53.52-0.05c0.64,24.46,23.46,68.37,23.46,68.37 M194.28,172.39c-31.53,25.49-50.29,61.45-54.01,101.6l54.01,0.21"/>
				<path class="st8" d="M439.71,287.12l23.7-22.9c-7.85-65.71-51.23-118.84-108.89-142.36l0.03,327.04l27.59-13.83V302.92h36.45
					l14.84,15.91c-2.34,19.09-21.85,50.39-21.85,50.39l34.8-5.59c0,0,12.51-23.8,16.34-52C462.73,311.63,442.7,291.55,439.71,287.12
					 M418.27,274.2h-36.13V170.24c26.85,20.33,46.57,51.6,54.01,84.23L418.27,274.2z"/>
				<path class="st8" d="M318.37,305.66h-5.19l0.01-95.57h-12.3l-0.11-47h-5.72v-22.57h-5.2l-0.32-23.84h-2.01l0,23.84h-4.8v-31.36
					h-2.26l0,31.36h-4.64v22.57h-6.08l-0.05,47h-5.58l-0.05,95.57h-7.37l0.04,155.42l61.67-0.05L318.37,305.66z M282.67,238.7
					l-2.09-10.36l7.34,7.26l7.18-7.22l-1.92,10.27l9.76,3.08l-9.75,3.17c0.62,2.96,1.08,4.74,1.57,9.58l-6.78-6.44l-7.37,7.01
					l2.06-10.11l-9.79-3.18L282.67,238.7z M294.73,434.5l-6.73-6.5l-7.43,7.06l2.1-10.17l-9.81-3.18l9.78-3.08l-2.04-10.26l7.3,7.17
					l7.24-7.15l-1.92,10.2l9.71,3.16l-9.78,3.1C293.91,428.3,294.37,429.75,294.73,434.5 M280.66,348.39l7.32,7.17l7.23-7.17
					l-1.92,10.24l9.64,3.1l-9.68,3.18c0.71,3.3,1.18,4.87,1.55,9.6l-6.73-6.49l-7.33,7c0.52-3.8,1.28-6.65,2.38-10.07l-10.23-3.19
					l9.84-3.11L280.66,348.39z M293.18,304.87c0.65,3.04,1.12,4.77,1.6,9.65l-6.79-6.49l-7.38,7.03l2.07-10.15l-9.84-3.18l9.83-3.05
					l-2.07-10.32l7.32,7.23l7.19-7.18l-1.9,10.21l9.73,3.13L293.18,304.87z"/>
				<circle class="st9" cx="287.9" cy="286.19" r="220.97"/>
				<circle class="st9" cx="287.9" cy="286.19" r="198.79"/>
			</g>
			<g class="st10">
				<g>
					<path d="M162.04,444.81l3.01,2.35l-4.53,15.1l-2.98-2.32l1-2.92l-4.47-3.49l-2.59,1.68l-2.98-2.32L162.04,444.81z
						 M159.61,453.88l1.74-5.06l-4.49,2.92L159.61,453.88z"/>
				</g>
				<g>
					<path d="M166.24,457.33c2.28-3.45,6.49-4.87,10.33-2.33c3.36,2.23,4.01,5.62,2.72,8.55l-3.05-2.02
						c0.32-1.28,0.23-2.82-1.38-3.88c-1.96-1.3-4.26-0.38-5.61,1.67c-1.36,2.05-1.31,4.52,0.65,5.82c1.61,1.07,3.07,0.54,4.12-0.25
						l3.05,2.02c-2.19,2.33-5.57,3.06-8.94,0.83C164.3,465.21,163.96,460.78,166.24,457.33z"/>
				</g>
				<g>
					<path d="M186.04,464.86l-3.92-2.2l1.53-2.73l10.99,6.15l-1.53,2.73l-3.92-2.2l-5.65,10.09l-3.15-1.77L186.04,464.86z"/>
				</g>
				<g>
					<path d="M196.79,467.09l3.24,1.6l-6.51,13.18l-3.24-1.6L196.79,467.09z"/>
				</g>
				<g>
					<path d="M201.7,469.62l3.55,1.52l-0.81,10.32l6.91-7.71l3.55,1.52l-10.74,11.39l-3.28-1.4L201.7,469.62z"/>
				</g>
				<g>
					<path d="M216.89,475.88l3.39,1.24l-5.04,13.81l-3.39-1.24L216.89,475.88z"/>
				</g>
				<g>
					<path d="M219.67,487.58l3.35,1.03c-0.11,1.3,0.51,2.42,2.08,2.9c1.4,0.43,2.5,0.09,2.81-0.92c0.22-0.72-0.1-1.33-1.08-1.85
						l-2.75-1.48c-2.19-1.18-3.14-2.72-2.43-5.05c0.78-2.53,3.61-3.68,6.82-2.7c3.27,1,4.88,3.36,4.15,6.22l-3.31-1.02
						c0.14-1.1-0.37-2.09-1.69-2.5c-1.28-0.39-2.26-0.16-2.54,0.76c-0.2,0.66,0.11,1.09,0.9,1.51l3.01,1.58
						c2.23,1.17,3.09,2.9,2.41,5.11c-0.87,2.83-3.85,4.04-7.17,3.03C220.78,493.14,219.08,490.58,219.67,487.58z"/>
				</g>
				<g>
					<path d="M239.38,486.03l-4.38-1.02l0.71-3.05l12.27,2.86l-0.71,3.05l-4.38-1.02l-2.62,11.27l-3.52-0.82L239.38,486.03z"/>
				</g>
				<g>
					<path d="M248.04,495.03l3.46,0.55c0.07,1.31,0.84,2.32,2.46,2.58c1.45,0.23,2.49-0.26,2.65-1.3c0.12-0.75-0.28-1.3-1.33-1.68
						l-2.93-1.08c-2.33-0.86-3.49-2.26-3.1-4.66c0.42-2.61,3.06-4.15,6.38-3.62c3.38,0.54,5.3,2.65,4.98,5.58l-3.42-0.55
						c-0.01-1.11-0.66-2.02-2.02-2.24c-1.33-0.21-2.26,0.15-2.41,1.1c-0.11,0.68,0.26,1.06,1.1,1.37l3.2,1.15
						c2.37,0.85,3.46,2.44,3.09,4.72c-0.47,2.92-3.26,4.54-6.68,3.99C249.91,500.39,247.87,498.09,248.04,495.03z"/>
				</g>
				<g>
					<path d="M268.72,487.79l3.6,0.3l-1.24,14.65l-3.6-0.3L268.72,487.79z"/>
				</g>
				<g>
					<path d="M275.48,488.35l3.27,0.09l6.58,9.11l0.25-8.92l3.42,0.09l-0.4,14.69l-3.3-0.09l-6.55-9.11l-0.25,8.92l-3.42-0.09
						L275.48,488.35z"/>
				</g>
				<g>
					<path d="M296.64,488.59l7.43-0.54c3.5-0.26,5.75,1.56,5.96,4.3c0.15,2.12-1,3.84-3.05,4.64l3.13,5.35l-4.15,0.3l-2.92-5.03
						l-2.11,0.15l0.38,5.21l-3.6,0.26L296.64,488.59z M304.34,494.55c1.38-0.1,2.17-0.87,2.09-1.96c-0.07-1-0.96-1.68-2.35-1.58
						l-3.62,0.26l0.26,3.54L304.34,494.55z"/>
				</g>
				<g>
					<path d="M312.28,487.25l11.07-1.63l0.46,3.09l-7.5,1.11l0.37,2.51l7.23-1.07l0.46,3.09l-7.23,1.07l0.4,2.74l7.67-1.13
						l0.46,3.09l-11.24,1.66L312.28,487.25z"/>
				</g>
				<g>
					<path d="M327.81,494.98l3.42-0.75c0.54,1.19,1.63,1.86,3.23,1.5c1.43-0.32,2.22-1.16,1.99-2.18c-0.16-0.74-0.74-1.11-1.85-1.08
						l-3.12,0.07c-2.48,0.05-4.07-0.82-4.6-3.2c-0.57-2.58,1.33-4.98,4.61-5.7c3.34-0.74,5.9,0.53,6.68,3.37l-3.38,0.74
						c-0.42-1.03-1.35-1.64-2.7-1.34c-1.31,0.29-2.04,0.97-1.84,1.91c0.15,0.68,0.63,0.9,1.52,0.87l3.4-0.1
						c2.52-0.08,4.11,1.01,4.61,3.26c0.64,2.89-1.37,5.42-4.75,6.16C331.51,499.28,328.77,497.89,327.81,494.98z"/>
				</g>
				<g>
					<path d="M339.99,481.89l3.48-0.96l3.9,14.17l-3.48,0.96L339.99,481.89z"/>
				</g>
				<g>
					<path d="M349.07,489.79l3.33-1.11c0.66,1.13,1.82,1.68,3.37,1.16c1.39-0.46,2.09-1.38,1.75-2.37
						c-0.24-0.72-0.85-1.02-1.95-0.88l-3.1,0.39c-2.46,0.31-4.13-0.4-4.9-2.71c-0.83-2.51,0.81-5.09,4-6.15
						c3.25-1.08,5.92-0.09,6.99,2.66l-3.29,1.09c-0.52-0.98-1.51-1.49-2.83-1.05c-1.28,0.42-1.93,1.17-1.63,2.09
						c0.22,0.66,0.72,0.82,1.61,0.71l3.37-0.46c2.5-0.34,4.19,0.58,4.92,2.77c0.93,2.81-0.8,5.53-4.08,6.62
						C353.2,493.68,350.33,492.58,349.07,489.79z"/>
				</g>
				<g>
					<path d="M364.27,477.14l-4.16,1.71l-1.19-2.89l11.65-4.79l1.19,2.89l-4.16,1.71l4.39,10.7l-3.34,1.37L364.27,477.14z"/>
				</g>
				<g>
					<path d="M375.43,468.79l3.43-1.69l11.61,10.67l-3.39,1.67l-2.19-2.17l-5.09,2.5l0.38,3.06l-3.39,1.67L375.43,468.79z
						 M382.53,474.95l-3.8-3.77l0.67,5.31L382.53,474.95z"/>
				</g>
				<g>
					<path d="M385.8,463.58l2.81-1.68l10.44,4.16l-4.58-7.66l2.94-1.76l7.54,12.61l-2.83,1.69l-10.42-4.17l4.58,7.66l-2.94,1.76
						L385.8,463.58z"/>
				</g>
				<g>
					<path d="M403.92,461.22c-2.41-3.37-2.22-7.8,1.52-10.48c3.28-2.34,6.68-1.73,8.96,0.51l-2.97,2.12
						c-1.08-0.75-2.55-1.22-4.12-0.1c-1.91,1.37-1.87,3.84-0.44,5.84c1.43,2,3.76,2.84,5.67,1.47c1.57-1.12,1.6-2.67,1.24-3.93
						l2.97-2.12c1.39,2.88,0.86,6.3-2.42,8.64C410.58,465.85,406.33,464.58,403.92,461.22z"/>
				</g>
				<g>
					<path d="M413.31,445.21l8.59-7.17l2.01,2.4l-5.82,4.86l1.63,1.95l5.61-4.68l2,2.4l-5.61,4.68l1.78,2.13l5.95-4.97l2,2.4
						l-8.72,7.28L413.31,445.21z"/>
				</g>
			</g>
		</g>
	</g>
</g>
</svg>
